<mxfile host="app.diagrams.net" agent="Mozilla/5.0 (Windows NT 10.0; Win64; x64) AppleWebKit/537.36 (KHTML, like Gecko) Chrome/137.0.0.0 Safari/537.36" version="27.1.1">
  <diagram name="Page-1" id="2YBvvXClWsGukQMizWep">
    <mxGraphModel dx="1501" dy="818" grid="1" gridSize="10" guides="1" tooltips="1" connect="1" arrows="1" fold="1" page="1" pageScale="1" pageWidth="850" pageHeight="1100" math="0" shadow="0">
      <root>
        <mxCell id="0" />
        <mxCell id="1" parent="0" />
        <mxCell id="1b6zCFFi0_ndk9Dz18f7-1" value="&lt;font style=&quot;&quot;&gt;&lt;span style=&quot;font-size: 21px;&quot;&gt;MainScreen&lt;br&gt;&lt;/span&gt;-------------&lt;br&gt;&lt;font style=&quot;font-size: 14px;&quot;&gt;Beauty Shop&lt;/font&gt;&lt;br&gt;&lt;font style=&quot;font-size: 14px;&quot;&gt;Barber Shop&lt;/font&gt;&lt;/font&gt;" style="rounded=0;whiteSpace=wrap;html=1;strokeColor=#1A1A1A;fontSize=13;" vertex="1" parent="1">
          <mxGeometry x="70" y="200" width="150" height="220" as="geometry" />
        </mxCell>
        <mxCell id="1b6zCFFi0_ndk9Dz18f7-2" value="" style="endArrow=classic;html=1;rounded=0;" edge="1" parent="1">
          <mxGeometry width="50" height="50" relative="1" as="geometry">
            <mxPoint x="220" y="310" as="sourcePoint" />
            <mxPoint x="330" y="240" as="targetPoint" />
          </mxGeometry>
        </mxCell>
        <mxCell id="1b6zCFFi0_ndk9Dz18f7-4" value="&lt;font style=&quot;font-size: 16px;&quot;&gt;List of selectedShops for booking. The user will select one of it and choose service then book the service&lt;/font&gt;" style="rounded=0;whiteSpace=wrap;html=1;" vertex="1" parent="1">
          <mxGeometry x="330" y="40" width="160" height="230" as="geometry" />
        </mxCell>
        <mxCell id="1b6zCFFi0_ndk9Dz18f7-6" value="Home&amp;nbsp; &amp;nbsp; &amp;nbsp; &amp;nbsp; Profile" style="rounded=1;whiteSpace=wrap;html=1;" vertex="1" parent="1">
          <mxGeometry x="80" y="390" width="130" height="20" as="geometry" />
        </mxCell>
        <mxCell id="1b6zCFFi0_ndk9Dz18f7-9" value="" style="endArrow=classic;html=1;rounded=0;" edge="1" parent="1">
          <mxGeometry width="50" height="50" relative="1" as="geometry">
            <mxPoint x="220" y="330" as="sourcePoint" />
            <mxPoint x="330" y="370" as="targetPoint" />
          </mxGeometry>
        </mxCell>
        <mxCell id="1b6zCFFi0_ndk9Dz18f7-12" value="" style="rounded=0;whiteSpace=wrap;html=1;" vertex="1" parent="1">
          <mxGeometry x="330" y="280" width="160" height="500" as="geometry" />
        </mxCell>
        <mxCell id="1b6zCFFi0_ndk9Dz18f7-14" value="&lt;font style=&quot;font-size: 13px;&quot;&gt;Profile&lt;/font&gt;" style="rounded=1;whiteSpace=wrap;html=1;" vertex="1" parent="1">
          <mxGeometry x="335" y="290" width="150" height="20" as="geometry" />
        </mxCell>
        <mxCell id="1b6zCFFi0_ndk9Dz18f7-15" value="My Appointment" style="rounded=1;whiteSpace=wrap;html=1;" vertex="1" parent="1">
          <mxGeometry x="350" y="360" width="120" height="20" as="geometry" />
        </mxCell>
        <mxCell id="1b6zCFFi0_ndk9Dz18f7-16" value="Account Setting" style="rounded=1;whiteSpace=wrap;html=1;" vertex="1" parent="1">
          <mxGeometry x="350" y="330" width="120" height="20" as="geometry" />
        </mxCell>
        <mxCell id="1b6zCFFi0_ndk9Dz18f7-17" value="User Notification" style="rounded=1;whiteSpace=wrap;html=1;" vertex="1" parent="1">
          <mxGeometry x="350" y="420" width="120" height="20" as="geometry" />
        </mxCell>
        <mxCell id="1b6zCFFi0_ndk9Dz18f7-18" value="Become Our Partner" style="rounded=1;whiteSpace=wrap;html=1;" vertex="1" parent="1">
          <mxGeometry x="350" y="390" width="120" height="20" as="geometry" />
        </mxCell>
        <mxCell id="1b6zCFFi0_ndk9Dz18f7-19" value="Terms &amp;amp; Condition" style="rounded=1;whiteSpace=wrap;html=1;" vertex="1" parent="1">
          <mxGeometry x="350" y="480" width="120" height="20" as="geometry" />
        </mxCell>
        <mxCell id="1b6zCFFi0_ndk9Dz18f7-20" value="Help &amp;amp; Support" style="rounded=1;whiteSpace=wrap;html=1;" vertex="1" parent="1">
          <mxGeometry x="350" y="450" width="120" height="20" as="geometry" />
        </mxCell>
        <mxCell id="1b6zCFFi0_ndk9Dz18f7-21" value="App Language" style="rounded=1;whiteSpace=wrap;html=1;" vertex="1" parent="1">
          <mxGeometry x="350" y="510" width="120" height="20" as="geometry" />
        </mxCell>
        <mxCell id="1b6zCFFi0_ndk9Dz18f7-23" value="" style="endArrow=classic;startArrow=classic;html=1;rounded=0;" edge="1" parent="1">
          <mxGeometry width="50" height="50" relative="1" as="geometry">
            <mxPoint x="490" y="339.38" as="sourcePoint" />
            <mxPoint x="570" y="339.38" as="targetPoint" />
          </mxGeometry>
        </mxCell>
        <mxCell id="1b6zCFFi0_ndk9Dz18f7-28" value="" style="endArrow=classic;startArrow=classic;html=1;rounded=0;" edge="1" parent="1">
          <mxGeometry width="50" height="50" relative="1" as="geometry">
            <mxPoint x="490" y="370" as="sourcePoint" />
            <mxPoint x="570" y="370" as="targetPoint" />
          </mxGeometry>
        </mxCell>
        <mxCell id="1b6zCFFi0_ndk9Dz18f7-29" value="User can update its Profile" style="rounded=0;whiteSpace=wrap;html=1;" vertex="1" parent="1">
          <mxGeometry x="580" y="330" width="260" height="20" as="geometry" />
        </mxCell>
        <mxCell id="1b6zCFFi0_ndk9Dz18f7-30" value="User Seeing it upcoming and past appointment&amp;nbsp;" style="rounded=0;whiteSpace=wrap;html=1;" vertex="1" parent="1">
          <mxGeometry x="580" y="360" width="260" height="20" as="geometry" />
        </mxCell>
        <mxCell id="1b6zCFFi0_ndk9Dz18f7-31" value="User can make the sub category of services&amp;nbsp;&amp;nbsp;" style="rounded=0;whiteSpace=wrap;html=1;" vertex="1" parent="1">
          <mxGeometry x="580" y="390" width="260" height="20" as="geometry" />
        </mxCell>
        <mxCell id="1b6zCFFi0_ndk9Dz18f7-33" value="" style="endArrow=classic;startArrow=classic;html=1;rounded=0;" edge="1" parent="1">
          <mxGeometry width="50" height="50" relative="1" as="geometry">
            <mxPoint x="490" y="400" as="sourcePoint" />
            <mxPoint x="570" y="400" as="targetPoint" />
          </mxGeometry>
        </mxCell>
        <mxCell id="1b6zCFFi0_ndk9Dz18f7-34" value="" style="endArrow=classic;startArrow=classic;html=1;rounded=0;" edge="1" parent="1">
          <mxGeometry width="50" height="50" relative="1" as="geometry">
            <mxPoint x="490" y="430" as="sourcePoint" />
            <mxPoint x="570" y="430" as="targetPoint" />
          </mxGeometry>
        </mxCell>
        <mxCell id="1b6zCFFi0_ndk9Dz18f7-35" value="User can see here notification" style="rounded=0;whiteSpace=wrap;html=1;" vertex="1" parent="1">
          <mxGeometry x="580" y="420" width="260" height="20" as="geometry" />
        </mxCell>
        <mxCell id="1b6zCFFi0_ndk9Dz18f7-36" value="Terms &amp;amp; Condition" style="rounded=0;whiteSpace=wrap;html=1;" vertex="1" parent="1">
          <mxGeometry x="580" y="480" width="260" height="20" as="geometry" />
        </mxCell>
        <mxCell id="1b6zCFFi0_ndk9Dz18f7-37" value="" style="endArrow=classic;startArrow=classic;html=1;rounded=0;" edge="1" parent="1">
          <mxGeometry width="50" height="50" relative="1" as="geometry">
            <mxPoint x="490" y="460" as="sourcePoint" />
            <mxPoint x="570" y="460" as="targetPoint" />
          </mxGeometry>
        </mxCell>
        <mxCell id="1b6zCFFi0_ndk9Dz18f7-38" value="" style="endArrow=classic;startArrow=classic;html=1;rounded=0;" edge="1" parent="1">
          <mxGeometry width="50" height="50" relative="1" as="geometry">
            <mxPoint x="490" y="489.74" as="sourcePoint" />
            <mxPoint x="570" y="490" as="targetPoint" />
          </mxGeometry>
        </mxCell>
        <mxCell id="1b6zCFFi0_ndk9Dz18f7-39" value="User can email to adamHawa administrator" style="rounded=0;whiteSpace=wrap;html=1;" vertex="1" parent="1">
          <mxGeometry x="580" y="450" width="260" height="20" as="geometry" />
        </mxCell>
        <mxCell id="1b6zCFFi0_ndk9Dz18f7-40" value="Use can change the language" style="rounded=0;whiteSpace=wrap;html=1;" vertex="1" parent="1">
          <mxGeometry x="580" y="510" width="260" height="20" as="geometry" />
        </mxCell>
        <mxCell id="1b6zCFFi0_ndk9Dz18f7-41" value="" style="endArrow=classic;startArrow=classic;html=1;rounded=0;" edge="1" parent="1">
          <mxGeometry width="50" height="50" relative="1" as="geometry">
            <mxPoint x="490" y="520" as="sourcePoint" />
            <mxPoint x="570" y="520" as="targetPoint" />
          </mxGeometry>
        </mxCell>
        <mxCell id="1b6zCFFi0_ndk9Dz18f7-42" value="My Shops" style="rounded=1;whiteSpace=wrap;html=1;" vertex="1" parent="1">
          <mxGeometry x="340" y="560" width="140" height="20" as="geometry" />
        </mxCell>
        <mxCell id="1b6zCFFi0_ndk9Dz18f7-46" value="Shops Notification" style="rounded=1;whiteSpace=wrap;html=1;" vertex="1" parent="1">
          <mxGeometry x="350" y="710" width="120" height="20" as="geometry" />
        </mxCell>
        <mxCell id="1b6zCFFi0_ndk9Dz18f7-47" value="Staff" style="rounded=1;whiteSpace=wrap;html=1;" vertex="1" parent="1">
          <mxGeometry x="350" y="680" width="120" height="20" as="geometry" />
        </mxCell>
        <mxCell id="1b6zCFFi0_ndk9Dz18f7-48" value="Register Shop" style="rounded=1;whiteSpace=wrap;html=1;" vertex="1" parent="1">
          <mxGeometry x="350" y="590" width="120" height="20" as="geometry" />
        </mxCell>
        <mxCell id="1b6zCFFi0_ndk9Dz18f7-49" value="Calendar" style="rounded=1;whiteSpace=wrap;html=1;" vertex="1" parent="1">
          <mxGeometry x="350" y="620" width="120" height="20" as="geometry" />
        </mxCell>
        <mxCell id="1b6zCFFi0_ndk9Dz18f7-50" value="Earnings" style="rounded=1;whiteSpace=wrap;html=1;" vertex="1" parent="1">
          <mxGeometry x="350" y="650" width="120" height="20" as="geometry" />
        </mxCell>
        <mxCell id="1b6zCFFi0_ndk9Dz18f7-51" value="" style="endArrow=classic;startArrow=classic;html=1;rounded=0;" edge="1" parent="1">
          <mxGeometry width="50" height="50" relative="1" as="geometry">
            <mxPoint x="490" y="625" as="sourcePoint" />
            <mxPoint x="560" y="625" as="targetPoint" />
          </mxGeometry>
        </mxCell>
        <mxCell id="1b6zCFFi0_ndk9Dz18f7-52" value="" style="endArrow=classic;startArrow=classic;html=1;rounded=0;" edge="1" parent="1">
          <mxGeometry width="50" height="50" relative="1" as="geometry">
            <mxPoint x="490" y="600" as="sourcePoint" />
            <mxPoint x="560" y="600" as="targetPoint" />
          </mxGeometry>
        </mxCell>
        <mxCell id="1b6zCFFi0_ndk9Dz18f7-54" value="" style="endArrow=classic;startArrow=classic;html=1;rounded=0;" edge="1" parent="1">
          <mxGeometry width="50" height="50" relative="1" as="geometry">
            <mxPoint x="490" y="719.41" as="sourcePoint" />
            <mxPoint x="560" y="719.41" as="targetPoint" />
          </mxGeometry>
        </mxCell>
        <mxCell id="1b6zCFFi0_ndk9Dz18f7-55" value="" style="endArrow=classic;startArrow=classic;html=1;rounded=0;" edge="1" parent="1">
          <mxGeometry width="50" height="50" relative="1" as="geometry">
            <mxPoint x="490" y="690" as="sourcePoint" />
            <mxPoint x="560" y="690" as="targetPoint" />
          </mxGeometry>
        </mxCell>
        <mxCell id="1b6zCFFi0_ndk9Dz18f7-56" value="" style="endArrow=classic;startArrow=classic;html=1;rounded=0;" edge="1" parent="1">
          <mxGeometry width="50" height="50" relative="1" as="geometry">
            <mxPoint x="490" y="660" as="sourcePoint" />
            <mxPoint x="560" y="660" as="targetPoint" />
          </mxGeometry>
        </mxCell>
        <mxCell id="1b6zCFFi0_ndk9Dz18f7-57" style="edgeStyle=orthogonalEdgeStyle;rounded=0;orthogonalLoop=1;jettySize=auto;html=1;exitX=0.5;exitY=1;exitDx=0;exitDy=0;" edge="1" parent="1" source="1b6zCFFi0_ndk9Dz18f7-50" target="1b6zCFFi0_ndk9Dz18f7-50">
          <mxGeometry relative="1" as="geometry" />
        </mxCell>
        <mxCell id="1b6zCFFi0_ndk9Dz18f7-58" value="Shop Notfication" style="rounded=1;whiteSpace=wrap;html=1;" vertex="1" parent="1">
          <mxGeometry x="580" y="710" width="270" height="20" as="geometry" />
        </mxCell>
        <mxCell id="1b6zCFFi0_ndk9Dz18f7-59" value="User can add and see the list of staff" style="rounded=1;whiteSpace=wrap;html=1;" vertex="1" parent="1">
          <mxGeometry x="580" y="680" width="270" height="20" as="geometry" />
        </mxCell>
        <mxCell id="1b6zCFFi0_ndk9Dz18f7-60" value="Showing the total revenue" style="rounded=1;whiteSpace=wrap;html=1;" vertex="1" parent="1">
          <mxGeometry x="571" y="650" width="279" height="20" as="geometry" />
        </mxCell>
        <mxCell id="1b6zCFFi0_ndk9Dz18f7-61" value="Calendar" style="rounded=1;whiteSpace=wrap;html=1;" vertex="1" parent="1">
          <mxGeometry x="571" y="620" width="279" height="20" as="geometry" />
        </mxCell>
        <mxCell id="1b6zCFFi0_ndk9Dz18f7-62" value="User&amp;nbsp; can register as a shop owner" style="rounded=1;whiteSpace=wrap;html=1;" vertex="1" parent="1">
          <mxGeometry x="571" y="590" width="280" height="20" as="geometry" />
        </mxCell>
      </root>
    </mxGraphModel>
  </diagram>
</mxfile>
